<?xml version="1.0" encoding="utf-8"?>
<!-- Generator: Adobe Illustrator 18.1.1, SVG Export Plug-In . SVG Version: 6.00 Build 0)  -->
<svg version="1.1" id="Layer_1" xmlns="http://www.w3.org/2000/svg" xmlns:xlink="http://www.w3.org/1999/xlink" x="0px" y="0px"
	 viewBox="0 0 1280 720" enable-background="new 0 0 1280 720" xml:space="preserve">
<g>
	<g>
		<path fill="#B0DBC8" d="M249.3,484.2c4.2-9.4,13.6-15.9,24.6-15.9c8.1,0,15.5,3.7,20.5,9.4c2.1-0.6,4.2-0.8,6.4-0.8
			c10.1,0,18.9,6.2,22.6,14.9c0.5,0,0.9-0.1,1.4-0.1c9.4,0,17.1,7.7,17.1,17.1c0,9.4-7.7,17.1-17.1,17.1c-4.1,0-64.9,0-69.8,0
			c-11.8,0-21.3-9.5-21.3-21.3C233.7,494.9,240.3,486.7,249.3,484.2z"/>
		<path fill="#B0DBC8" d="M435.8,392.4c0.8,0,1.7,0.1,2.6,0.2c3.6-6.7,10.7-11.4,19-11.4c8.3,0,15.5,4.7,19.1,11.5
			c1-0.2,2.2-0.3,3.4-0.3c9.1,0,16.5,7.4,16.5,16.5c0,9.2-7.4,16.5-16.5,16.5c-4.3,0-39.8,0-44,0c-9.1,0-16.5-7.4-16.5-16.5
			C419.3,399.9,426.6,392.4,435.8,392.4z"/>
		<g>
			<g>
				<path fill="#325054" d="M137.2,457.6v-1.6c0-6.1,4.9-10.9,10.9-10.9h1.6v-4.3h-1.6c-5.5,0-10.4,2.9-13,7.4
					c-2.7-4.5-7.7-7.4-13-7.4h-1.6v4.3h1.6c6.1,0,10.9,4.9,10.9,10.9v1.6H137.2z"/>
			</g>
		</g>
		<g>
			<g>
				<path fill="#325054" d="M61,413.4v-1.6c0-6.1,4.9-10.9,10.9-10.9h1.6v-4.3h-1.6c-5.5,0-10.4,2.9-13,7.4c-2.7-4.5-7.7-7.4-13-7.4
					h-1.6v4.3h1.6c6.1,0,10.9,4.9,10.9,10.9v1.6H61z"/>
			</g>
		</g>
		<g>
			<path fill="#B0DBC8" d="M222.4,357.1c0,6.1,5,11.1,11.1,11.1c6.1,0,11.1-5,11.1-11.1h0.9c0,6.1,5,11.1,11.1,11.1
				c6.1,0,11.1-5,11.1-11.1h0.9c0,6.1,5,11.1,11.1,11.1c6.1,0,11.1-5,11.1-11.1h0.9c0,6.1,5,11.1,11.1,11.1s11.1-5,11.1-11.1h0.9
				c0,6.6-5.4,12-12,12c-5.5,0-10.1-3.7-11.5-8.7c-1.4,5-6.1,8.7-11.5,8.7c-5.5,0-10.1-3.7-11.5-8.7c-1.4,5-6.1,8.7-11.5,8.7
				c-5.5,0-10.1-3.7-11.5-8.7c-1.4,5-6.1,8.7-11.5,8.7c-6.6,0-12-5.4-12-12H222.4z"/>
		</g>
	</g>
	<polygon fill="#B2DDCA" points="595.1,545.7 592.2,546.5 513.3,219.9 516.2,219.2 	"/>
	<g>
		<path fill="#F1716D" d="M608.6,694l47.6-69.6c0.6-0.8,1.6-0.9,2.4-0.5l0,0c0.8,0.6,0.9,1.6,0.5,2.4L611.5,696
			c-0.6,0.8-1.6,0.9-2.4,0.5l0,0C608.3,695.9,608,694.9,608.6,694z"/>
		<path fill="#FFE8CE" d="M640,579.7c-0.3,1.3-4.2,20.6-7.1,24.8c-2.9,4.2,16.3,2.9,19.7,2.1c3.4-0.8,4.7-3.4,4.7-3.4s-5-1.3,0-15.5
			C662.2,573.5,640,579.7,640,579.7z"/>
		<path fill="#325054" d="M683.7,507.9c-1.9-1.4-21.4-10.6-27.6-12.2c-4.7-1.3-22.5-4.2-33.9-6.1c-4-0.6-7.1-1.2-8.7-1.4
			c-6.3-0.9-36.2,20.1-33.3,30c2.9,9.8,42.7,13.6,50.6,11.8c6.9-1.6,18.4-2.1,25-1.6c-2.4,6.2-5.8,15-6.6,18.9
			c-1.3,6.3-14.7,51.1-14.7,51.1s0,0,4.2-0.5c4.2-0.5,16.8-2.6,16.8-2.6s0,0,0.8-1.6s12.1-26.8,15.9-33c3-5,9.4-19.2,13.6-29.4
			c1-2.7,2-5.1,2.7-7c0.7-2,1.2-3.7,1.4-5.2l0,0C690.2,516.2,685.7,509.2,683.7,507.9z"/>
		<path fill="#F1716D" d="M644.9,627.6H671c1.6,0,2.9-1.3,2.9-2.9l0,0c0-1.6-1.3-2.9-2.9-2.9h-26.1c-1.6,0-2.9,1.3-2.9,2.9l0,0
			C642,626.3,643.3,627.6,644.9,627.6z"/>
		<path fill="#FFFFFF" d="M672.4,614.6c0.8,0.5,1.7-0.6,2.3-1.7c-0.8-0.2-1.7-0.5-2.4-0.7C671.8,613.1,671.6,614.1,672.4,614.6z"/>
		<path fill="#FFFFFF" d="M666.8,613.3c1,0.5,2.2-0.7,3.1-2.1c-0.6-0.2-1-0.3-1.5-0.6c-0.3-0.1-0.7-0.3-1.2-0.6
			C666.5,611.5,665.8,612.8,666.8,613.3z"/>
		<path fill="#FFFFFF" d="M661.9,609.4c0.3,0.7,1.4,0.8,3.3-0.7c-0.7-0.6-1.3-1.2-1.9-1.6C662.5,608.2,661.8,609.1,661.9,609.4z"/>
		<path fill="#B2DDCA" d="M691.1,618.5c-0.2,0.1-0.5,0.1-0.6,0.2C690.7,618.6,690.9,618.6,691.1,618.5c-0.3-0.9-1.3-1.7-4.9-2.8
			c-3.6-0.9-7.9-2-11.5-3c-0.6,1.2-1.5,2.2-2.3,1.7c-0.8-0.3-0.6-1.5-0.1-2.4c-0.8-0.2-1.6-0.5-2.3-0.7c-0.9,1.3-2.1,2.6-3.1,2.1
			s-0.3-1.9,0.6-3.1c-0.7-0.3-1.4-0.9-2.1-1.4c-2,1.5-2.9,1.4-3.3,0.7c-0.2-0.3,0.6-1.4,1.4-2.4c-1.3-1.3-2.2-2.4-2.7-3
			c-1-1.3-1.3-3.8-6.3-0.5c-5,3.4-17.2,1.5-17.2,1.5s-1.3-1.9-3.1-3.1c-1.9-1.3-3.1-0.2-3.6,3.1c-0.5,3.4-0.8,7.1-1.6,8.8
			c-0.1,0.1-0.1,0.2-0.2,0.3h-0.1c-1,2.1-3.4,6.9,3,7.6c9.5,0.9,17.2-1.2,23.7,0.7c6.5,1.9,17.7,3.5,25.8,2c8.1-1.5,10-2.9,9.9-4.4
			C691,619.8,691.2,619.1,691.1,618.5z"/>
		<g>
			<path fill="#325054" d="M564.3,584.3c-37.5,0-67.8,30.4-67.8,67.8c0,37.5,30.4,67.8,67.8,67.8c37.5,0,67.8-30.4,67.8-67.8
				C632.1,614.7,601.8,584.3,564.3,584.3z M564.3,711.7c-32.9,0-59.6-26.6-59.6-59.6c0-32.9,26.6-59.6,59.6-59.6
				c32.9,0,59.6,26.6,59.6,59.6C623.7,685.1,597.1,711.7,564.3,711.7z"/>
			<path opacity="0.1" enable-background="new    " d="M564.3,592.7c-32.9,0-59.6,26.6-59.6,59.6s26.6,59.6,59.6,59.6
				c32.9,0,59.6-26.6,59.6-59.6C623.7,619.3,597.1,592.7,564.3,592.7z M564.3,706.4c-29.9,0-54.1-24.2-54.1-54.1
				s24.2-54.1,54.1-54.1c29.9,0,54.1,24.2,54.1,54.1C618.4,682.1,594.2,706.4,564.3,706.4z"/>
		</g>
		<g>
			<path fill="#325054" d="M762,584.3c-37.5,0-67.8,30.4-67.8,67.8c0,37.5,30.4,67.8,67.8,67.8c37.5,0,67.8-30.4,67.8-67.8
				C829.8,614.7,799.5,584.3,762,584.3z M762,711.7c-32.9,0-59.6-26.6-59.6-59.6c0-32.9,26.6-59.6,59.6-59.6
				c32.9,0,59.6,26.6,59.6,59.6C821.6,685.1,794.9,711.7,762,711.7z"/>
			<path opacity="0.1" enable-background="new    " d="M762,592.7c-32.9,0-59.6,26.6-59.6,59.6s26.6,59.6,59.6,59.6
				c32.9,0,59.6-26.6,59.6-59.6S794.9,592.7,762,592.7z M762,706.4c-29.9,0-54.1-24.2-54.1-54.1s24.2-54.1,54.1-54.1
				c29.9,0,54.1,24.2,54.1,54.1C816.2,682.1,791.9,706.4,762,706.4z"/>
		</g>
		<path fill="#F1716D" d="M597.1,662h37c0.9,0,1.7-0.8,1.7-1.7l0,0c0-0.9-0.8-1.7-1.7-1.7h-37c-0.9,0-1.7,0.8-1.7,1.7l0,0
			C595.4,661.2,596.2,662,597.1,662z"/>
		<path opacity="0.1" enable-background="new    " d="M636.1,448c-11.2-12-15.6-2.9-30.8,7.3C618.2,446.8,626.7,441.8,636.1,448z"/>
		<path fill="#F6DAC6" d="M688,450.6c0,0,5.2,10.8,10.2,16.5c5,5.7,12.6,7.7,17.1,13.5c4.5,5.8,24.3,21.5,25,22.7
			c0.7,1-34.7-9.2-44.9-15.2c-10.2-6.1-19.4-16.6-24.3-22.6c-4.9-5.9,6.1-20,8.1-20.1C681.4,445.2,688,450.6,688,450.6z"/>
		<circle fill="#325054" cx="564.3" cy="652.2" r="10.5"/>
		<circle opacity="0.3" enable-background="new    " cx="564.3" cy="652.2" r="10.5"/>
		
			<polygon fill="none" stroke="#38BA9B" stroke-width="7.1938" stroke-linecap="round" stroke-linejoin="round" stroke-miterlimit="10" points="
			608.3,556.8 564.3,652.2 633.5,660.3 725.2,568.2 718.2,547.7 		"/>
		<circle fill="#325054" cx="762" cy="652.2" r="6.1"/>
		<circle opacity="0.3" enable-background="new    " cx="762" cy="652.2" r="6.1"/>
		
			<path fill="none" stroke="#38BA9B" stroke-width="7.1938" stroke-linecap="round" stroke-linejoin="round" stroke-miterlimit="10" d="
			M762,652.2c0,0-9-12.2-16.3-30.5c-5-12.5-19.8-52.7-28.6-77c-3.7-10.4,1.9-21.6,12.3-25c11.4-3.6,24.2-7.7,26.6-8.7
			c4.7-2,13.5,3.3,8.6,17.8"/>
		<circle fill="#325054" cx="633.5" cy="660.3" r="13.7"/>
		<circle opacity="0.3" enable-background="new    " cx="633.5" cy="660.3" r="13.7"/>
		<circle fill="#F1716D" cx="633.5" cy="660.3" r="5.9"/>
		<path fill="#F1716D" d="M608.4,694.4l23.9-34.9c0.5-0.6,1.3-0.8,1.9-0.3l0.6,0.5c0.6,0.5,0.8,1.3,0.3,1.9l-23.9,34.9
			c-0.5,0.6-1.3,0.8-1.9,0.3l-0.6-0.5C608,695.9,607.9,695,608.4,694.4z"/>
		<g>
			<path fill="#35B395" d="M595.4,698.4l24.9,7.6c1.5,0.5,3.3-0.3,3.7-2l0,0c0.5-1.5-0.3-3.3-2-3.7l-24.9-7.6
				c-1.5-0.5-3.3,0.3-3.7,2l0,0C592.9,696.3,593.8,697.9,595.4,698.4z"/>
			<path fill="#FFE8CE" d="M595,656.7c0,0-0.7,11.3-1.9,14.9c-1.2,3.6-4.7,11.4-3.6,12.6c1,1.2,20.4,3,24.8,0.7
				c4.4-2.3,1.9-6.2,0.2-12.1c-1.6-5.9-1.9-14-1.4-16.3s-6.6-7.7-6.6-7.2S595,656.7,595,656.7z"/>
			<path fill="#FFFFFF" d="M623.6,687.5c1.2,0.9,2.9-0.9,4.1-2.4c-0.5-0.3-0.8-0.7-1-0.9c-0.2-0.2-0.7-0.7-1-1.2
				C624.2,684.4,622.5,686.6,623.6,687.5z"/>
			<path fill="#FFFFFF" d="M628.4,690.1c0.8,0.7,2.2-0.5,3.1-1.5c-0.7-0.6-1.4-1.2-2-1.7C628.8,687.8,627.6,689.3,628.4,690.1z"/>
			<path fill="#FFFFFF" d="M619.2,683.6c0.8,1.3,3.4-1.3,4.7-2.7c-0.6-0.7-1.2-1.4-1.7-2.1C620.7,680.1,618.4,682.3,619.2,683.6z"/>
			<path fill="#B2DDCA" d="M648.4,701.1c-0.2,0.1-0.5,0.2-0.7,0.3c0.1-0.1,0.2-0.2,0.5-0.2c-1.2-1.7-3.7-3.1-7.2-5.4
				c-2.8-1.7-6.4-4.7-9.4-7.3c-0.9,1-2.4,2.2-3.1,1.5c-0.8-0.8,0.3-2.3,1.2-3.3c-0.7-0.6-1.3-1.2-1.9-1.6c-1.2,1.5-2.9,3.5-4.1,2.4
				c-1.2-1,0.6-3.1,2-4.5c-0.6-0.6-1.2-1.4-1.9-2.1c-1.3,1.4-3.8,4-4.7,2.7c-0.8-1.3,1.5-3.5,2.9-4.8c-2.1-2.6-4.3-5-4.9-4.8
				c-1,0.3-2.3,4.2-8.6,7c-6.3,2.8-11.3,1-14.8-0.8c-3.5-1.9-4.4-2.8-5.7-0.1c-0.6,1.3-1.5,4.1-2.3,6.7c0,0,0.1,0,0.1,0.1
				c-0.5,1.5-0.8,2.9-1.2,3.8c-0.2,0.9,0.1,2,1,2.6c0.8,0.5,2,1.2,3.5,1.6c3.1,1.2,9.7,2.4,13.8,2.4c4.2,0.1,20.5,7.6,32.7,9.5
				c12.2,1.9,13.3-1.5,13.3-4.1C649,702.3,648.8,701.7,648.4,701.1z M644,702.3c0.8,0,1.4,0,1.9-0.1c0.5,0,0.8-0.1,1.2-0.2
				c-0.3,0.1-0.7,0.2-1,0.2C645.5,702.3,644.8,702.3,644,702.3z M647.5,701.7c-0.1,0-0.1,0.1-0.2,0.1
				C647.3,701.8,647.4,701.7,647.5,701.7z"/>
			<path fill="#325054" d="M631.8,580.7L631.8,580.7L631.8,580.7c-0.5-8.5-10.8-37.6-15-48.4c-4.2-10.8-7.1-15.8-8.1-19.4
				c-1-3.6,1.4-18,0.3-22.7c-1-4.7-27-28.7-37.8-25.1c-10.8,3.6-11.5,7.2-11.5,7.2s-10.1,22.3-8.3,33.4c1.7,11.2,9.7,20.5,13.5,23.7
				c1,0.9,3,4,5.5,8.3c6.5,11.4,16.3,31.2,21.1,38.9c6.5,10.5,7.6,15.8,8.6,20.7c0,0-6.6,27.6-5.6,38.9c1,11.3-2.2,33.6-2.2,33.6
				s5.2,3.3,13.6,2c8.4-1.3,9.3-2.8,9.3-2.8s-0.2-22.3,5.7-39.7c5.9-17.3,9.7-34,10.2-40.1C631.3,586.2,632.2,583.7,631.8,580.7z"/>
		</g>
		<path fill="#F1716D" d="M551.6,498.5c0,0,38.9,7.6,46.9,4.9c8.1-2.7,13.5-6.5,18.6-10.2c5.1-3.6,5.1-3.6,5.1-3.6
			s2.3-4.5,10.4-10.5s29.9-9,32.7-14.4s12.8-9.3,12.8-9.3l9.9-4.8c0,0-8.3-16.9-16.1-24.3c-7.8-7.4-16.4-18.7-29.8-15
			c-13.4,3.7-40,24.2-48.9,28c-8.8,3.7-19.7,16.9-29.1,25.4C554.7,473.2,551.6,498.5,551.6,498.5z"/>
		<path fill="#FFE7CD" d="M744.7,516.5c0,0,3.8,2.7,4.5,3.8c0.7,1.2,2.9,4.8,4.3,5.2c1.4,0.5,2.4,0,2.4,0s-0.3-2-0.5-2.7
			c-0.1-0.7-0.5-1.7-0.5-1.7s0.7-0.8,1.2-0.9c0.5-0.1,1.5,0.2,2.8-0.9c1.3-1.2,2.2-2.4,2.4-3.3c0.2-0.8,0.5-2.9,0-4.8
			c-0.5-1.9-0.7-2.2-0.7-2.2s2.3,2.9,3.1,4.1c0.8,1.2,1.4,2.1,1.4,2.1s-0.3,2.9,0,4.3c0.3,1.4,1.9,1.5,1.9,1.5s0.9-0.7,1-1.9
			c0.1-1.2,0.3-3.6,0.5-5.4s-2.6-6.5-3.6-8.3s-1.5-3-3.1-4.2c-1.6-1.2-1.3-0.9-4.2-1c-2.9-0.1-8-0.6-9.5-0.7
			c-1.5-0.1-4.9,0.7-6.3,0.5c-1.4-0.3-23.7-14.5-27.9-17.8c-4.2-3.3-11.6-11.5-19.2-15.5c-7.6-4-12.8-6.3-16.5-11.4
			c-3.7-5.1-7.6-13.3-14.5-18.4c-7-5.2-26.4-7.9-20.1,3.3c6.3,11.2,5,14.1,9.9,18.5c4.9,4.4,10.2,11.3,13.2,13.3
			c2.9,2,10.5,10.8,17.5,16.1c7,5.4,30.3,11.8,38.3,17.9c8,6.2,8.6,7.2,8.6,7.2s0.9,3.7,4,4S744.7,516.5,744.7,516.5z"/>
		<path fill="#F1716D" d="M676.1,448c0,0-9.4,2.9-16.8,9.2c-7.3,6.3-12,7.4-12,7.4l-17.5-32.2l18.4-10.5l19.8,10.5L676.1,448z"/>
		<g>
			<path fill="#FFE7CD" d="M682.9,373.4c0.3,0,7.6,2.6,10.2,5c2.7,2.3,4.3,5.1,4.7,7c0.3,1.9,0.9,3,1.4,4.3c0.5,1.3,0.9,2.3,0.7,3.1
				c-0.2,0.8-1,1.9-0.9,2.6c0.1,0.7,1.3,1.2,2,2.2c0.7,1,1.3,2.6,2,3.3c0.7,0.7,2.3,2.4,1.3,3.5c-0.9,1.2-2.6,1.2-3.1,1.4
				c-0.5,0.2-0.2,2.9-0.1,3.4s0.9,0.8,0.3,1.7s-0.6,0.9-0.6,0.9s0.3,0.6,0.2,1.4c-0.1,0.7-0.5,0.9-1,0.9c-0.6,0-1.2,0.9-1,1.9
				c0.2,0.9,1.5,2.3,0.6,4c-1,1.5-2.6,2.6-5.8,2.2c-3.3-0.3-5.5-0.1-6.3,0.8c-0.8,0.9-5.2,8.3-14.5,15.1c0,0-7.2-18.5-15.9-22.8
				c0,0,6.3-1.7,4.5-12.2c-1.7-10.5,7.8-22.2,9.5-24.1C672.7,377,682.9,373.4,682.9,373.4z"/>
			<path fill="#035B5F" d="M671,400.4c0,0,1-1.3,2.1-2c1-0.7,1.6-1.3,1.6-1.3s5,0.6,5.6-2c0.2-1.2,1.3-4,2.1-4.4
				c0.9-0.5,4.1-1.9,4.1-1.9s4,1.9,6.7-1.7c2.8-3.6,3.3-4.5,3.3-4.5s0.9,1.9,1.3,2.9c0.2,1.2,0.6,2.1,0.8,2.8
				c0.2,0.7,0.6,1.4,0.6,1.4s2.7-2.3,2.3-6.4s-0.8-5.6-2.4-6.7c-1.6-1.2-1.6-1.2-1.6-1.2s-1.5-4.1-4.5-5.4c-3-1.3-15.9-4.4-25.3-2.1
				c-6.3,1.5-6.1,4.7-6.1,4.7s-4-0.2-7.1,3.3c-3.1,3.4-7.2,7.4-5.8,15.6s4.1,11.6,4.7,14.9c0.6,3.1-0.6,5.8,1.4,7
				c2,1.2,11.6,2,11.6,2s-0.7-2.8-0.6-5.1c0.1-2.3,0.8-5.2,0.8-5.2s-1.9-2.7-2.1-4.7c-0.1-2,0-4,1.5-4.8c1.5-0.7,3.7-0.8,4.4-0.1
				c0.8,0.7,0.8,0.7,0.8,0.7s-0.7,0.5-0.8,1.6C670.3,398.9,671,400.4,671,400.4z"/>
		</g>
	</g>
	<g>
		<path fill="#325054" d="M440.2,71.9l-22.1-22.7h-32.5c0,6.2,0,92.4,0,92.4l21.8,20.9l-21.8,20.9c0,0,0,86.2,0,92.4h32.5l22.1-22.7
			l-0.6-90.8L440.2,71.9z"/>
		<polygon fill="#38BA9B" points="752.6,0 627.2,47.6 554.3,93.6 471.2,106.1 439.5,163 483.2,229.4 564.3,240.1 705.7,327.8 
			882.1,282.6 922.2,103.7 		"/>
		<polygon opacity="0.1" enable-background="new    " points="620.6,144.7 513.3,187.7 439.5,163 483.2,229.4 564.3,240.1 
			705.7,327.8 		"/>
		<polygon opacity="0.1" enable-background="new    " points="705.7,327.8 856,187.1 620.6,144.7 		"/>
		<polygon opacity="0.2" enable-background="new    " points="705.7,327.8 856,187.1 882.1,282.6 		"/>
		<polygon opacity="0.15" enable-background="new    " points="705.7,327.8 856,187.1 882.1,282.6 		"/>
		<polygon opacity="0.2" enable-background="new    " points="922.2,103.7 856,187.1 882.1,282.6 		"/>
		<polygon opacity="0.2" fill="#FFFFFF" enable-background="new    " points="752.6,0 620.6,144.7 627.2,47.6 		"/>
		<polygon opacity="0.1" enable-background="new    " points="439.5,163 513.3,187.7 483.2,229.4 		"/>
		<polygon opacity="0.1" enable-background="new    " points="620.6,144.7 564.3,240.1 705.7,327.8 		"/>
		<path opacity="0.2" fill="#FFFFFF" enable-background="new    " d="M385.6,276c0-6.2,0-92.4,0-92.4l22.1-21.3l31.9-0.1l0.6,91.1
			L418.1,276H385.6z"/>
	</g>
	<g>
		<path fill="#B0DBC8" d="M896.5,415.2c-0.8,0-1.6,0.1-2.4,0.2c-3.5-6.5-10.5-11.1-18.4-11.1c-8,0-15,4.5-18.5,11.2
			c-1-0.2-2.2-0.3-3.3-0.3c-8.8,0-16.1,7.2-16.1,16.1c0,8.8,7.2,16.1,16.1,16.1c4.2,0,38.6,0,42.6,0c8.8,0,16.1-7.2,16.1-16.1
			C912.5,422.4,905.4,415.2,896.5,415.2z"/>
		<g>
			<g>
				<path fill="#325054" d="M987.2,347.1v-1.6c0-5.8-4.8-10.6-10.6-10.6H975v-4.2h1.6c5.2,0,10,2.8,12.7,7.2
					c2.7-4.4,7.4-7.2,12.7-7.2h1.6v4.2h-1.6c-5.8,0-10.6,4.8-10.6,10.6v1.6H987.2z"/>
			</g>
		</g>
	</g>
</g>
</svg>
